simulation
nRows=61
nColumns=15
endheader
time  TH_x TH_y TH_z SC_y  SC_z  SC_x  AC_y  AC_z  AC_x  GH_y  GH_z  GH_yy  EL_x  PS_y
0.500000  0.000000  0.000000  0.000000  -17.035317  -5.007401  12.459347  58.241331  6.039668  -14.618134  9.373704  54.548214  -27.001289  20.169613  129.294314
0.500206  0.000000  0.000000  0.000000  -23.204055  9.830376  12.459347  47.733277  -5.507267  -1.296377  12.418916  37.917530  -12.700348  22.329959  129.178261
0.500412  0.000000  0.000000  0.000000  -16.565274  -11.311829  12.459347  62.982802  -1.998985  -5.882718  22.878179  46.830814  -24.954773  12.275492  114.905167
0.500618  0.000000  0.000000  0.000000  -25.994972  10.085046  12.459347  48.090433  -6.551512  3.008698  12.949771  35.540479  -15.875693  24.593714  116.304115
0.500824  0.000000  0.000000  0.000000  -45.217147  10.510059  12.459347  52.660494  3.241313  2.406696  35.509611  45.904716  -14.252958  15.371044  132.960006
0.501031  0.000000  0.000000  0.000000  -31.114253  1.337450  17.792680  57.542319  3.879140  -11.698398  23.540409  45.502263  -19.444716  19.030349  124.430419
0.501237  0.000000  0.000000  0.000000  -32.995359  -5.361781  17.792680  64.715088  -7.823721  -6.542683  30.394285  53.689391  -10.929924  10.871591  119.183712
0.501443  0.000000  0.000000  0.000000  -42.644568  -8.739215  17.792680  62.005774  0.297479  -15.651174  26.751945  43.821970  -14.567248  21.137403  126.333808
0.501649  0.000000  0.000000  0.000000  -29.983160  0.984554  17.792680  58.441358  -3.218753  2.947642  11.321328  50.028046  -13.993292  23.246737  114.703489
0.501855  0.000000  0.000000  0.000000  -32.152151  -4.979553  17.792680  67.042569  14.053868  -13.118127  23.154037  37.082521  -21.919991  18.714321  119.274201
0.502061  0.000000  0.000000  0.000000  -20.925799  15.926084  17.792680  43.997231  5.847250  -9.592798  22.536037  51.939863  -11.814158  15.651145  125.371431
0.502267  0.000000  0.000000  0.000000  -16.336223  9.464368  17.792680  52.741966  -1.863779  -7.875018  18.084213  53.823505  -14.790583  14.471685  116.239962
0.502473  0.000000  0.000000  0.000000  -25.802181  -13.508172  17.792680  65.361815  -7.249101  -12.568939  35.714680  39.205295  -25.136888  18.638193  133.229513
0.502679  0.000000  0.000000  0.000000  -31.114253  1.337450  23.126013  57.623615  -0.624027  -14.557897  23.540409  45.502263  -19.444716  19.030349  124.430419
0.502885  0.000000  0.000000  0.000000  -16.888280  0.477468  23.126013  52.804174  -4.907340  -15.967972  19.598863  37.716650  -22.837098  9.037578  114.521461
0.503092  0.000000  0.000000  0.000000  -23.536451  8.593194  23.126013  56.243058  1.993465  -1.166028  34.285615  50.534444  -20.489053  10.289317  127.758301
0.503298  0.000000  0.000000  0.000000  -33.852802  -3.482570  23.126013  69.554351  -7.610379  -2.220030  17.762211  47.541887  -23.307700  12.218500  128.398592
0.503504  0.000000  0.000000  0.000000  -31.530089  -4.898581  23.126013  60.638050  -13.361894  -13.539919  34.355085  36.839714  -19.467732  9.355704  132.491838
0.503710  0.000000  0.000000  0.000000  -20.898930  1.805091  23.126013  44.841457  -13.310058  -12.287138  25.390996  43.733277  -21.580274  25.374706  127.661290
0.503916  0.000000  0.000000  0.000000  -40.115990  -11.739719  23.126013  69.258294  -6.848195  -6.671981  19.303731  41.249511  -24.722447  18.733598  119.785967
0.504122  0.000000  0.000000  0.000000  -34.608490  1.578824  23.126013  63.683377  -8.350756  -0.336083  20.040126  40.813234  -28.940019  24.403301  117.043684
0.504328  0.000000  0.000000  0.000000  -37.115606  2.243928  23.126013  60.427932  0.081214  -5.445409  15.401950  43.223575  -13.772586  23.883370  128.247334
0.504534  0.000000  0.000000  0.000000  -31.114253  1.337450  28.459347  57.479812  -5.125639  -17.422304  23.540409  45.502263  -19.444716  19.030349  124.430419
0.504740  0.000000  0.000000  0.000000  -27.298994  -9.681460  28.459347  62.018520  -18.520358  -8.843809  33.366080  50.850983  -23.362610  24.276114  133.069615
0.504946  0.000000  0.000000  0.000000  -43.024300  -2.764339  28.459347  65.990203  -1.501834  -7.581776  17.870885  43.362138  -27.253336  14.615042  122.899795
0.505153  0.000000  0.000000  0.000000  -17.826524  6.186641  28.459347  57.196899  -2.935288  -14.613366  30.761636  40.684227  -14.432813  12.666773  119.654865
0.505359  0.000000  0.000000  0.000000  -25.364424  10.805560  28.459347  51.997189  -13.716658  -11.917161  38.294185  44.509609  -18.954452  25.645006  114.493389
0.505565  0.000000  0.000000  0.000000  -42.760428  11.356423  28.459347  51.226118  -11.300392  -3.943964  27.134988  40.344544  -18.086136  23.032701  133.510062
0.505771  0.000000  0.000000  0.000000  -23.104166  -1.812561  28.459347  48.569369  -19.857219  -12.309413  34.539610  42.571538  -22.574473  10.527677  124.750258
0.505977  0.000000  0.000000  0.000000  -39.040505  14.210615  28.459347  52.200264  -18.029129  -2.968139  22.497341  47.860741  -29.335596  18.041724  129.589949
0.506183  0.000000  0.000000  0.000000  -23.018875  1.240498  28.459347  47.327898  -18.176862  -27.062105  34.427236  49.078124  -25.655245  18.795820  117.644570
0.506389  0.000000  0.000000  0.000000  -31.160269  1.481530  9.360820  56.903061  12.126033  -6.921073  23.715187  46.334645  -20.168027  18.779839  124.162983
0.506595  0.000000  0.000000  0.000000  -31.160269  1.481530  -2.639180  54.823848  22.071525  0.115896  23.715187  46.334645  -20.168027  18.779839  124.162983
0.506801  0.000000  0.000000  0.000000  -43.923399  -2.557467  -2.639180  68.238109  19.777381  11.716599  15.411343  40.265890  -19.317597  23.788525  128.352932
0.507007  0.000000  0.000000  0.000000  -31.000246  9.363352  -2.639180  49.095374  20.652968  1.249142  14.644851  45.009060  -11.277905  28.364438  124.135352
0.507214  0.000000  0.000000  0.000000  -20.826843  7.071114  -2.639180  53.030327  24.249606  -0.081344  20.493406  54.126422  -29.905444  22.943805  133.396809
0.507420  0.000000  0.000000  0.000000  -45.259851  3.274696  -2.639180  56.099540  7.387870  11.491376  33.972531  46.571437  -12.841780  23.990321  117.073803
0.507626  0.000000  0.000000  0.000000  -30.541922  2.423704  -2.639180  56.805415  21.374447  4.066617  28.858582  37.153007  -12.137876  13.865350  128.550906
0.507832  0.000000  0.000000  0.000000  -38.383043  3.225946  -2.639180  57.389818  9.199319  10.196860  32.081138  50.948573  -17.564103  11.574707  130.376908
0.508038  0.000000  0.000000  0.000000  -23.209920  -3.799691  -2.639180  57.377110  8.037319  9.086758  11.101704  43.226241  -25.086634  12.054996  120.833145
0.508244  0.000000  0.000000  0.000000  -44.667463  9.416637  -2.639180  48.694694  17.832144  11.462323  27.226204  44.891591  -25.317385  22.227325  126.882261
0.508450  0.000000  0.000000  0.000000  -40.949856  13.146311  -2.639180  46.996367  21.055199  14.382331  19.398295  50.125179  -18.982640  11.636699  123.398158
0.508656  0.000000  0.000000  0.000000  -40.874651  -6.001242  -2.639180  61.363797  9.459908  -1.874475  35.681737  53.040648  -21.180736  26.320356  132.254690
0.508862  0.000000  0.000000  0.000000  -31.160269  1.481530  2.694153  55.920334  17.681716  -3.105984  23.715187  46.334645  -20.168027  18.779839  124.162983
0.509068  0.000000  0.000000  0.000000  -18.820232  11.017975  2.694153  43.520649  11.594225  7.643462  34.189556  45.504284  -20.012328  20.517826  131.622253
0.509275  0.000000  0.000000  0.000000  -38.967840  3.220043  2.694153  55.496593  11.077260  -1.125677  24.799119  41.307852  -26.560882  18.086167  123.336932
0.509481  0.000000  0.000000  0.000000  -29.373416  0.946877  2.694153  60.522303  25.471802  -2.867044  28.816998  43.845473  -22.653012  12.051259  121.436793
0.509687  0.000000  0.000000  0.000000  -20.200601  -4.605278  2.694153  65.771120  18.954146  -0.436048  33.285603  51.232355  -10.799553  18.398438  126.467109
0.509893  0.000000  0.000000  0.000000  -32.835323  -7.672024  2.694153  67.245487  11.654187  -3.024542  12.781592  43.447084  -19.409953  9.376616  114.651105
0.510099  0.000000  0.000000  0.000000  -24.292058  -4.794490  2.694153  61.076771  26.549636  7.952441  18.675621  37.068128  -25.970719  22.194238  129.026127
0.510305  0.000000  0.000000  0.000000  -30.914273  15.220506  2.694153  41.180585  2.922065  -2.514123  17.669203  49.639133  -28.803314  8.969819  117.198603
0.510511  0.000000  0.000000  0.000000  -24.520184  10.665706  2.694153  44.470528  12.549535  -5.563318  24.261653  41.091015  -26.471128  13.685982  115.698173
0.510717  0.000000  0.000000  0.000000  -30.686469  -1.428083  2.694153  63.241395  26.347220  11.756340  18.831412  48.992597  -18.518018  24.986839  114.512158
0.510923  0.000000  0.000000  0.000000  -31.160269  1.481530  8.027486  56.738828  13.242002  -6.173155  23.715187  46.334645  -20.168027  18.779839  124.162983
0.511129  0.000000  0.000000  0.000000  -31.413529  16.054643  8.027486  50.211351  19.874947  6.870230  24.122933  41.787638  -11.358149  24.592388  119.703801
0.511336  0.000000  0.000000  0.000000  -43.352427  -6.623148  8.027486  64.059525  12.325650  -0.785000  15.311350  39.774539  -21.026852  25.257650  117.287094
0.511542  0.000000  0.000000  0.000000  -32.414397  -8.959288  8.027486  63.861661  6.945075  -1.634514  9.540437  41.556606  -12.313781  17.444982  133.189984
0.511748  0.000000  0.000000  0.000000  -36.517674  -13.209528  8.027486  70.634630  17.019284  0.077545  12.174045  41.468087  -19.355302  16.534703  119.908012
0.511954  0.000000  0.000000  0.000000  -28.800509  -6.989751  8.027486  61.592607  9.268091  -1.156373  10.287894  41.666798  -18.001094  26.322145  120.738598
0.512160  0.000000  0.000000  0.000000  -22.585763  -10.316582  8.027486  69.452982  16.815238  3.044592  9.726529  53.176719  -18.772986  22.151254  116.298842
0.512366  0.000000  0.000000  0.000000  -22.655917  2.721937  8.027486  57.455028  11.967745  -1.177388  10.077894  49.070756  -10.924228  15.631380  128.325457
